HIERARCHY
ROOT Root
{
  OFFSET 0.0 0.0 0.0
  CHANNELS 6 Xposition Yposition Zposition Zrotation Yrotation Xrotation
  JOINT Hips
  {
    OFFSET 0.0 100.0 0.0
    CHANNELS 6 Xposition Yposition Zposition Zrotation Yrotation Xrotation
    JOINT Spine1
    {
      OFFSET -0.013727 5.003763 -0.053727
      CHANNELS 3 Zrotation Yrotation Xrotation
      JOINT Spine2
      {
        OFFSET -0.0 7.125301 -0.029825
        CHANNELS 3 Zrotation Yrotation Xrotation
        JOINT Chest
        {
          OFFSET -1e-06 7.550063 -0.815971
          CHANNELS 3 Zrotation Yrotation Xrotation
          JOINT Neck1
          {
            OFFSET -0.181677 26.311295 -0.553348
            CHANNELS 3 Zrotation Yrotation Xrotation
            JOINT Neck2
            {
              OFFSET -3e-06 7.709397 2.302585
              CHANNELS 3 Zrotation Yrotation Xrotation
              JOINT Head
              {
                OFFSET -5e-06 6.128916 1.953709
                CHANNELS 3 Zrotation Yrotation Xrotation
                JOINT HeadEnd
                {
                  OFFSET 0.003598 16.065403 -1.835379
                  CHANNELS 3 Zrotation Yrotation Xrotation
                }
                JOINT Jaw
                {
                  OFFSET 0.002637 0.475592 3.094941
                  CHANNELS 3 Zrotation Yrotation Xrotation
                }
                JOINT LeftEye
                {
                  OFFSET 3.206381 5.380205 7.586883
                  CHANNELS 3 Zrotation Yrotation Xrotation
                }
                JOINT RightEye
                {
                  OFFSET -3.22244 5.361869 7.558234
                  CHANNELS 3 Zrotation Yrotation Xrotation
                }
              }
            }
          }
          JOINT LeftShoulder
          {
            OFFSET 1.621652 23.237164 5.113413
            CHANNELS 3 Zrotation Yrotation Xrotation
            JOINT LeftArm
            {
              OFFSET 14.919846 2e-06 -5.502326
              CHANNELS 3 Zrotation Yrotation Xrotation
              JOINT LeftForeArm
              {
                OFFSET 28.739307 0.0 -0.002588
                CHANNELS 3 Zrotation Yrotation Xrotation
                JOINT LeftHand
                {
                  OFFSET 27.093981 -1e-06 0.002609
                  CHANNELS 3 Zrotation Yrotation Xrotation
                  JOINT LeftHandThumb1
                  {
                    OFFSET 2.276482 -1.392045 3.191413
                    CHANNELS 3 Zrotation Yrotation Xrotation
                    JOINT LeftHandThumb2
                    {
                      OFFSET 4.012836 -1.828127 1.641654
                      CHANNELS 3 Zrotation Yrotation Xrotation
                      JOINT LeftHandThumb3
                      {
                        OFFSET 2.798515 0.0 -3e-06
                        CHANNELS 3 Zrotation Yrotation Xrotation
                        JOINT LeftHandThumbEnd
                        {
                          OFFSET 3.180793 -4e-06 4e-06
                          CHANNELS 3 Zrotation Yrotation Xrotation
                        }
                      }
                    }
                  }
                  JOINT LeftHandIndex1
                  {
                    OFFSET 3.247555 -0.531998 2.296169
                    CHANNELS 3 Zrotation Yrotation Xrotation
                    JOINT LeftHandIndex2
                    {
                      OFFSET 6.364578 0.01206 0.1786
                      CHANNELS 3 Zrotation Yrotation Xrotation
                      JOINT LeftHandIndex3
                      {
                        OFFSET 3.662364 0.0 0.0
                        CHANNELS 3 Zrotation Yrotation Xrotation
                        JOINT LeftHandIndex4
                        {
                          OFFSET 2.329242 4e-06 4e-06
                          CHANNELS 3 Zrotation Yrotation Xrotation
                          JOINT LeftHandIndexEnd
                          {
                            OFFSET 2.759615 -0.180537 -0.113024
                            CHANNELS 3 Zrotation Yrotation Xrotation
                          }
                        }
                      }
                    }
                  }
                  JOINT LeftHandMiddle1
                  {
                    OFFSET 3.163495 0.240981 1.000332
                    CHANNELS 3 Zrotation Yrotation Xrotation
                    JOINT LeftHandMiddle2
                    {
                      OFFSET 6.19078 -0.259278 -1.002548
                      CHANNELS 3 Zrotation Yrotation Xrotation
                      JOINT LeftHandMiddle3
                      {
                        OFFSET 4.35652 -4e-06 -1e-06
                        CHANNELS 3 Zrotation Yrotation Xrotation
                        JOINT LeftHandMiddle4
                        {
                          OFFSET 2.996877 -8e-06 0.0
                          CHANNELS 3 Zrotation Yrotation Xrotation
                          JOINT LeftHandMiddleEnd
                          {
                            OFFSET 2.304287 -0.294569 -0.031741
                            CHANNELS 3 Zrotation Yrotation Xrotation
                          }
                        }
                      }
                    }
                  }
                  JOINT LeftHandRing1
                  {
                    OFFSET 2.882643 -0.053652 -0.322543
                    CHANNELS 3 Zrotation Yrotation Xrotation
                    JOINT LeftHandRing2
                    {
                      OFFSET 5.854541 -0.486202 -1.373841
                      CHANNELS 3 Zrotation Yrotation Xrotation
                      JOINT LeftHandRing3
                      {
                        OFFSET 4.350578 0.0 3e-06
                        CHANNELS 3 Zrotation Yrotation Xrotation
                        JOINT LeftHandRing4
                        {
                          OFFSET 2.651321 7e-06 2e-06
                          CHANNELS 3 Zrotation Yrotation Xrotation
                          JOINT LeftHandRingEnd
                          {
                            OFFSET 1.936105 0.077687 -7.1e-05
                            CHANNELS 3 Zrotation Yrotation Xrotation
                          }
                        }
                      }
                    }
                  }
                  JOINT LeftHandPinky1
                  {
                    OFFSET 2.8655 -0.310005 -1.600378
                    CHANNELS 3 Zrotation Yrotation Xrotation
                    JOINT LeftHandPinky2
                    {
                      OFFSET 5.087849 -1.331141 -1.77123
                      CHANNELS 3 Zrotation Yrotation Xrotation
                      JOINT LeftHandPinky3
                      {
                        OFFSET 3.070974 4e-06 0.0
                        CHANNELS 3 Zrotation Yrotation Xrotation
                        JOINT LeftHandPinky4
                        {
                          OFFSET 1.549672 0.0 1e-06
                          CHANNELS 3 Zrotation Yrotation Xrotation
                          JOINT LeftHandPinkyEnd
                          {
                            OFFSET 1.944893 -0.157802 0.057219
                            CHANNELS 3 Zrotation Yrotation Xrotation
                          }
                        }
                      }
                    }
                  }
                }
              }
            }
          }
          JOINT RightShoulder
          {
            OFFSET -1.380118 23.180309 5.214158
            CHANNELS 3 Zrotation Yrotation Xrotation
            JOINT RightArm
            {
              OFFSET -15.037196 1.2e-05 -5.545604
              CHANNELS 3 Zrotation Yrotation Xrotation
              JOINT RightForeArm
              {
                OFFSET -28.736639 2e-06 -0.002597
                CHANNELS 3 Zrotation Yrotation Xrotation
                JOINT RightHand
                {
                  OFFSET -27.133619 -0.0 0.002613
                  CHANNELS 3 Zrotation Yrotation Xrotation
                  JOINT RightHandThumb1
                  {
                    OFFSET -2.274032 -1.383988 3.163127
                    CHANNELS 3 Zrotation Yrotation Xrotation
                    JOINT RightHandThumb2
                    {
                      OFFSET -4.011429 -1.827466 1.640914
                      CHANNELS 3 Zrotation Yrotation Xrotation
                      JOINT RightHandThumb3
                      {
                        OFFSET -2.794935 -4e-06 -3e-06
                        CHANNELS 3 Zrotation Yrotation Xrotation
                        JOINT RightHandThumbEnd
                        {
                          OFFSET -3.183852 4e-06 1e-06
                          CHANNELS 3 Zrotation Yrotation Xrotation
                        }
                      }
                    }
                  }
                  JOINT RightHandIndex1
                  {
                    OFFSET -3.253266 -0.520057 2.282866
                    CHANNELS 3 Zrotation Yrotation Xrotation
                    JOINT RightHandIndex2
                    {
                      OFFSET -6.341917 0.012471 0.178266
                      CHANNELS 3 Zrotation Yrotation Xrotation
                      JOINT RightHandIndex3
                      {
                        OFFSET -3.654871 -8e-06 -0.0
                        CHANNELS 3 Zrotation Yrotation Xrotation
                        JOINT RightHandIndex4
                        {
                          OFFSET -2.327586 0.0 1e-06
                          CHANNELS 3 Zrotation Yrotation Xrotation
                          JOINT RightHandIndexEnd
                          {
                            OFFSET -2.76179 -0.180656 -0.113078
                            CHANNELS 3 Zrotation Yrotation Xrotation
                          }
                        }
                      }
                    }
                  }
                  JOINT RightHandMiddle1
                  {
                    OFFSET -3.168106 0.246593 1.00103
                    CHANNELS 3 Zrotation Yrotation Xrotation
                    JOINT RightHandMiddle2
                    {
                      OFFSET -6.180828 -0.258836 -1.000895
                      CHANNELS 3 Zrotation Yrotation Xrotation
                      JOINT RightHandMiddle3
                      {
                        OFFSET -4.348901 0.0 -0.0
                        CHANNELS 3 Zrotation Yrotation Xrotation
                        JOINT RightHandMiddle4
                        {
                          OFFSET -3.00024 -4e-06 -2e-06
                          CHANNELS 3 Zrotation Yrotation Xrotation
                          JOINT RightHandMiddleEnd
                          {
                            OFFSET -2.30252 -0.29437 -0.031706
                            CHANNELS 3 Zrotation Yrotation Xrotation
                          }
                        }
                      }
                    }
                  }
                  JOINT RightHandRing1
                  {
                    OFFSET -2.88569 -0.067952 -0.308858
                    CHANNELS 3 Zrotation Yrotation Xrotation
                    JOINT RightHandRing2
                    {
                      OFFSET -5.854198 -0.48613 -1.373731
                      CHANNELS 3 Zrotation Yrotation Xrotation
                      JOINT RightHandRing3
                      {
                        OFFSET -4.33881 -4e-06 -0.0
                        CHANNELS 3 Zrotation Yrotation Xrotation
                        JOINT RightHandRing4
                        {
                          OFFSET -2.654903 -4e-06 4e-06
                          CHANNELS 3 Zrotation Yrotation Xrotation
                          JOINT RightHandRingEnd
                          {
                            OFFSET -1.933568 0.077527 -5.2e-05
                            CHANNELS 3 Zrotation Yrotation Xrotation
                          }
                        }
                      }
                    }
                  }
                  JOINT RightHandPinky1
                  {
                    OFFSET -2.866425 -0.342796 -1.584145
                    CHANNELS 3 Zrotation Yrotation Xrotation
                    JOINT RightHandPinky2
                    {
                      OFFSET -5.091371 -1.332055 -1.772385
                      CHANNELS 3 Zrotation Yrotation Xrotation
                      JOINT RightHandPinky3
                      {
                        OFFSET -3.062664 -4e-06 1e-06
                        CHANNELS 3 Zrotation Yrotation Xrotation
                        JOINT RightHandPinky4
                        {
                          OFFSET -1.546529 4e-06 -2e-06
                          CHANNELS 3 Zrotation Yrotation Xrotation
                          JOINT RightHandPinkyEnd
                          {
                            OFFSET -1.945119 -0.157718 0.057211
                            CHANNELS 3 Zrotation Yrotation Xrotation
                          }
                        }
                      }
                    }
                  }
                }
              }
            }
          }
        }
      }
    }
    JOINT LeftLeg
    {
      OFFSET 10.043214 -8.434526 2.595655
      CHANNELS 3 Zrotation Yrotation Xrotation
      JOINT LeftShin
      {
        OFFSET -1e-06 -43.221752 -0.802913
        CHANNELS 3 Zrotation Yrotation Xrotation
        JOINT LeftFoot
        {
          OFFSET 1e-06 -42.155094 -3.481523
          CHANNELS 3 Zrotation Yrotation Xrotation
          JOINT LeftToeBase
          {
            OFFSET 0.0 -5.059472 13.231529
            CHANNELS 3 Zrotation Yrotation Xrotation
            JOINT LeftToeEnd
            {
              OFFSET -0.009607 -1.647619 6.513017
              CHANNELS 3 Zrotation Yrotation Xrotation
            }
          }
        }
      }
    }
    JOINT RightLeg
    {
      OFFSET -10.047278 -8.29526 2.620317
      CHANNELS 3 Zrotation Yrotation Xrotation
      JOINT RightShin
      {
        OFFSET 1e-06 -43.362206 -0.805556
        CHANNELS 3 Zrotation Yrotation Xrotation
        JOINT RightFoot
        {
          OFFSET 2e-06 -42.117393 -3.478398
          CHANNELS 3 Zrotation Yrotation Xrotation
          JOINT RightToeBase
          {
            OFFSET -0.0 -5.079609 13.284196
            CHANNELS 3 Zrotation Yrotation Xrotation
            JOINT RightToeEnd
            {
              OFFSET 0.009532 -1.634378 6.460591
              CHANNELS 3 Zrotation Yrotation Xrotation
            }
          }
        }
      }
    }
  }
}
MOTION
Frames: 5
Frame Time: 0.03333333333333333
0.0 0.0 0.0 0.0 -0.0 0.0 -0.962288 62.100197 259.058868 13.487238 -19.8521 -8.641288 -1.950787 0.680002 17.53047 -0.768464 -0.656279 2.482134 -1.410196 -1.414353 20.211535 -5.144692 3.174901 -11.371978 0.240145 2.732559 -3.116508 -5.634057 5.507749 -0.274081 7.7e-05 -2.2e-05 6e-06 0.033009 -0.109721 -0.116578 0.801926 -3.834613 -10.391712 -0.750138 3.609322 -10.397264 8.691175 -14.686821 12.686369 -1.247656 -37.862469 -14.853266 0.725759 -39.274185 -0.02768 8.622488 3.636356 17.179506 -5.882109 9.861292 0.70259 -10.936879 -0.360576 7.156211 1e-06 8.774829 -2e-06 -17.953205 16.957903 4.64175 -1.844035 2.498506 -2.507282 -10.163608 4.678945 4.621113 -20.976038 -4e-06 4e-06 -21.226299 2.451698 -3.593999 0.0 -5e-06 -1e-06 -1.362682 2.2408 -0.746324 -21.334929 0.584909 3.008327 -13.821222 -3e-06 3e-06 -23.887188 -0.249078 -0.839481 -60.277561 2.29094 -1.03076 -0.294024 1.679687 0.833256 -14.218219 0.093214 1.300583 -34.212074 -0.287564 0.967176 -20.033226 0.964538 1.212847 0.0 -0.0 1e-06 -3.440391 0.788234 0.501656 -15.9282 -3.167313 2.99971 -6.338829 -2e-06 4e-06 -18.123459 3.648183 -4.905672 -3e-06 -1e-06 -2e-06 0.692709 19.088362 13.651869 50.063538 17.355568 17.748569 0.862853 16.002171 0.592325 -13.057721 -0.41357 21.055178 2.243541 -5.255037 -3.180156 14.282896 -0.826596 6.952507 -2e-06 -12.690607 0.0 16.453032 -17.980753 2.259521 1.665667 -1.95592 -2.878299 4.727801 -4.170588 4.993925 11.020533 3e-06 1e-06 12.109057 -3.735717 -2.866782 -0.0 0.0 -1e-06 1.291986 -1.92855 -1.49809 14.800136 0.567468 3.865611 14.242578 -1.341737 -6.660657 19.631975 0.143924 -0.648242 51.020985 -0.23318 -6.322878 0.353028 -1.511152 -0.03194 20.222801 3.684309 2.316635 18.787285 4e-06 1e-06 10.751631 -0.479869 1.397907 0.0 1e-06 1e-06 3.273809 0.305947 -0.580111 21.486824 11.830377 2.266136 8.162933 1e-06 1e-06 18.399092 -3.798986 -4.940576 3e-06 1e-06 -1e-06 -10.971728 16.375298 -74.38224 -0.047935 -0.26323 99.464447 -1.492316 -6.276215 -12.995977 1.618217 -1.729149 0.008169 0.0 0.0 2e-06 -1.410133 -8.190241 -76.529831 -0.436049 -0.501032 109.636459 -4.834444 -7.368137 -20.616674 -1.477699 0.729149 -8.133902 0.0 0.0 -1e-06 
0.0 0.0 0.0 0.0 -0.0 0.0 -2.460306 68.067017 261.562195 12.193214 -16.255434 -4.936479 -1.940642 0.287651 16.134207 -0.698361 -0.804046 1.913472 -1.234421 -1.804563 19.021576 -3.618147 3.067932 -13.442436 -0.157882 2.173502 -3.094166 -5.608928 4.941725 -1.430092 7.7e-05 -2.2e-05 5e-06 0.01596 -0.091933 -0.109853 0.793806 -3.803959 -10.360848 -0.777214 3.6162 -10.375827 7.867022 -14.675063 13.401948 -6.786322 -39.369671 -8.908193 0.41325 -38.55368 0.016329 6.656729 4.955429 15.854179 -5.882109 9.861288 0.702591 -10.936881 -0.360576 7.156209 2e-06 8.77483 -0.0 -18.069906 17.147936 4.639533 -1.844034 2.498505 -2.507279 -10.163608 4.678945 4.621112 -20.976038 -5e-06 4e-06 -21.226301 2.451697 -3.593997 0.0 -6e-06 0.0 -1.362684 2.240798 -0.746324 -21.334932 0.584908 3.008328 -13.821225 -4e-06 4e-06 -23.887188 -0.249079 -0.83948 -60.430672 2.41559 -0.85313 -0.294026 1.679689 0.833257 -14.21822 0.093213 1.300582 -34.212074 -0.287565 0.967174 -20.033228 0.964535 1.212845 0.0 0.0 0.0 -3.440392 0.788233 0.501658 -15.928201 -3.16731 2.999708 -6.33883 -1e-06 2e-06 -18.123457 3.648183 -4.905669 -4e-06 0.0 -2e-06 0.914033 18.138941 13.607913 52.897743 17.675819 14.541161 0.634942 16.875605 0.5445 -15.171414 -0.926888 16.835396 2.243542 -5.255038 -3.180159 14.282905 -0.826595 6.952512 -3e-06 -12.690614 2e-06 16.443243 -17.536154 2.085941 1.665666 -1.955922 -2.8783 4.727804 -4.170589 4.99393 11.020535 5e-06 0.0 12.109059 -3.735716 -2.866781 0.0 -1e-06 -2e-06 1.291986 -1.92855 -1.498089 14.800142 0.567469 3.865613 14.242581 -1.341735 -6.660661 19.631985 0.143926 -0.648239 50.76997 -0.202229 -6.271605 0.35303 -1.511151 -0.031941 20.222811 3.684314 2.316633 18.787289 4e-06 5e-06 10.751637 -0.479869 1.397911 -1e-06 1e-06 1e-06 3.273809 0.305947 -0.580112 21.486832 11.830384 2.266137 8.162935 0.0 2e-06 18.399096 -3.798988 -4.940573 3e-06 0.0 -1e-06 -10.526271 13.699097 -69.363152 -0.096668 -0.251258 91.805412 -2.556105 -6.649891 -12.097452 1.626179 -1.803792 0.195798 0.0 -0.0 2e-06 -2.535851 -7.450565 -71.203514 -0.287546 -0.380866 103.685242 -4.414948 -9.307497 -17.564552 -1.455643 0.742185 -9.39823 0.0 1e-06 -1e-06 
0.0 0.0 0.0 0.0 -0.0 0.0 -4.175091 74.245956 264.139832 11.046103 -12.944453 -1.910487 -1.928432 -0.083289 14.68632 -0.639304 -0.935847 1.405664 -1.036215 -2.233098 18.095734 -2.451241 3.024162 -15.076859 -0.540901 1.720067 -3.106174 -5.578354 4.443396 -2.061852 7.7e-05 -2.2e-05 6e-06 0.000128 -0.089306 -0.112646 0.792776 -3.781754 -10.36534 -0.807007 3.597187 -10.382195 6.936524 -14.769492 14.038698 -13.670913 -40.186306 -1.9805 0.262108 -37.83675 -0.064306 4.272012 5.668337 13.65791 -5.882108 9.86129 0.702592 -10.93688 -0.360576 7.156211 2e-06 8.774831 -1e-06 -17.865519 17.324875 4.858713 -1.844032 2.498506 -2.507279 -10.163606 4.678946 4.621111 -20.97604 -5e-06 6e-06 -21.226301 2.451698 -3.593997 0.0 -5e-06 -0.0 -1.362682 2.240799 -0.746324 -21.33493 0.584907 3.008326 -13.821223 -3e-06 5e-06 -23.887186 -0.24908 -0.839479 -60.605415 2.625091 -0.616944 -0.294025 1.679688 0.833257 -14.218218 0.093214 1.300583 -34.21207 -0.287565 0.967175 -20.033226 0.964537 1.212847 1e-06 0.0 0.0 -3.440391 0.788234 0.501656 -15.9282 -3.167311 2.99971 -6.33883 -1e-06 2e-06 -18.123457 3.648183 -4.905669 -4e-06 0.0 -2e-06 1.246782 17.364811 13.670368 55.68866 18.195759 11.779697 0.57027 17.722321 0.450564 -17.397049 -0.471843 13.494006 2.243543 -5.255039 -3.180157 14.282903 -0.826597 6.95251 -4e-06 -12.690614 1e-06 16.730577 -17.316954 1.893719 1.665667 -1.955922 -2.878302 4.727804 -4.170591 4.993928 11.020535 3e-06 0.0 12.109062 -3.735718 -2.866787 0.0 -0.0 0.0 1.291985 -1.928551 -1.498089 14.800139 0.567467 3.865609 14.242583 -1.341737 -6.660662 19.631983 0.143925 -0.648244 50.77523 -0.245224 -6.3647 0.353029 -1.511152 -0.031938 20.222805 3.684311 2.316633 18.787289 3e-06 1e-06 10.751636 -0.479869 1.397905 -0.0 1e-06 -1e-06 3.27381 0.305947 -0.58011 21.486832 11.830382 2.266133 8.162933 1e-06 1e-06 18.399096 -3.798987 -4.940578 3e-06 -0.0 -1e-06 -9.505529 11.692493 -63.447548 -0.178211 -0.268775 82.741264 -3.5405 -7.556948 -10.351189 1.618195 -1.851333 0.087403 0.0 0.0 2e-06 -3.410507 -6.813152 -66.016701 -0.079571 -0.264926 96.792824 -5.092033 -9.828194 -11.350097 -1.400676 0.665737 -11.164244 0.0 -0.0 -1e-06 
0.0 0.0 0.0 0.0 -0.0 0.0 -5.933825 80.354576 266.812012 9.823388 -10.285645 0.319672 -1.678438 -0.429688 13.364706 -0.552416 -1.100008 0.953399 -0.826956 -2.468919 17.21966 -1.916299 3.035082 -15.763107 -0.655141 1.541141 -3.14151 -5.424579 3.880503 -2.618878 7.7e-05 -2.2e-05 6e-06 -0.010763 -0.044789 -0.09472 0.780603 -3.73963 -10.403639 -0.815712 3.644199 -10.420787 5.771157 -14.843251 14.658465 -22.076338 -39.714325 5.477699 0.301115 -36.889946 -0.316245 1.53339 6.05189 10.397237 -5.882111 9.861287 0.702589 -10.936877 -0.360574 7.156208 2e-06 8.774828 -0.0 -17.419071 17.501995 5.306475 -1.844035 2.498504 -2.507279 -10.163606 4.678946 4.621109 -20.976038 -5e-06 -0.0 -21.226301 2.451694 -3.594002 1e-06 -7e-06 -0.0 -1.362683 2.240798 -0.746325 -21.334927 0.584909 3.008322 -13.821221 -4e-06 0.0 -23.887184 -0.249082 -0.839485 -60.593689 2.79831 -0.597541 -0.294025 1.679688 0.833257 -14.218214 0.093215 1.300579 -34.212067 -0.287568 0.967166 -20.033222 0.964534 1.212842 0.0 0.0 0.0 -3.440389 0.788233 0.501655 -15.928198 -3.16731 2.999705 -6.338829 -2e-06 -1e-06 -18.123459 3.648183 -4.905674 -4e-06 0.0 -1e-06 1.824939 16.746111 13.861097 57.965549 18.633768 10.569331 0.507069 18.447632 0.377102 -18.081791 0.185674 11.536785 2.243544 -5.255039 -3.180161 14.282904 -0.826596 6.952509 -3e-06 -12.690612 2e-06 16.826517 -17.436066 1.919336 1.665667 -1.955922 -2.8783 4.727803 -4.17059 4.993927 11.020536 3e-06 -0.0 12.109062 -3.735718 -2.866787 -0.0 0.0 0.0 1.291986 -1.92855 -1.49809 14.800142 0.567469 3.865612 14.242582 -1.341737 -6.660661 19.631985 0.143924 -0.648245 50.970284 -0.345636 -6.361482 0.353029 -1.511152 -0.031941 20.222807 3.684312 2.316634 18.787289 5e-06 2e-06 10.751636 -0.47987 1.397909 0.0 -0.0 -0.0 3.273809 0.305947 -0.58011 21.486832 11.830381 2.266135 8.162934 2e-06 2e-06 18.399097 -3.798988 -4.940577 3e-06 1e-06 -3e-06 -7.872871 10.430483 -56.71431 -0.183172 -0.278908 72.605042 -4.55836 -8.65018 -7.848622 1.628155 -1.883614 -0.387328 0.0 0.0 2e-06 -4.53607 -5.829265 -60.374645 0.080519 -0.184763 88.963455 -5.133352 -9.320959 -5.843461 -1.357284 0.645902 -10.909602 -0.0 0.0 -1e-06 
0.0 0.0 0.0 0.0 -0.0 0.0 -7.557647 86.154633 269.596497 8.41047 -8.554787 1.885591 -1.319529 -0.649195 12.191106 -0.413209 -1.177189 0.455172 -0.507339 -2.658122 16.390497 -1.843048 3.043669 -15.41496 -0.536941 1.707198 -3.195096 -5.334882 3.687042 -3.428805 7.7e-05 -2.3e-05 6e-06 -0.014251 -0.000586 -0.063752 0.777404 -3.706645 -10.46561 -0.818166 3.698776 -10.485752 4.486047 -14.629702 15.29772 -31.079105 -37.697918 12.36661 0.611012 -35.452686 -0.584774 -0.959382 6.47943 6.329713 -5.882112 9.861292 0.702592 -10.936881 -0.360576 7.156211 2e-06 8.774831 -1e-06 -17.00116 17.624105 5.68561 -1.844034 2.498506 -2.507279 -10.163608 4.678948 4.621112 -20.976044 -6e-06 3e-06 -21.226305 2.451697 -3.594001 2e-06 -7e-06 -0.0 -1.362682 2.240799 -0.746324 -21.334936 0.584909 3.008325 -13.821228 -4e-06 2e-06 -23.887196 -0.249081 -0.839482 -60.783657 2.840444 -0.657264 -0.294025 1.679688 0.833257 -14.218224 0.093214 1.300581 -34.212082 -0.287567 0.967172 -20.033234 0.964537 1.212845 0.0 -0.0 -0.0 -3.440391 0.788234 0.501656 -15.928201 -3.167313 2.999709 -6.338832 -1e-06 1e-06 -18.123465 3.648185 -4.905673 -3e-06 1e-06 -2e-06 2.252822 16.411602 14.1113 59.829929 18.988705 10.84423 0.491865 18.854122 0.341836 -17.406771 0.915475 10.345181 2.243543 -5.255043 -3.180162 14.282907 -0.826595 6.952512 -4e-06 -12.690619 1e-06 16.745844 -17.513901 1.970732 1.665668 -1.955923 -2.878301 4.727805 -4.170591 4.993933 11.020539 4e-06 0.0 12.109066 -3.735719 -2.866787 -0.0 0.0 1e-06 1.291986 -1.92855 -1.49809 14.800148 0.567471 3.865613 14.242587 -1.341734 -6.660663 19.63199 0.143929 -0.648243 50.836884 -0.425695 -6.423559 0.353028 -1.511152 -0.03194 20.222818 3.684315 2.316634 18.787296 6e-06 3e-06 10.751643 -0.479869 1.397908 0.0 -1e-06 1e-06 3.27381 0.305948 -0.580114 21.486843 11.830391 2.266138 8.162938 2e-06 2e-06 18.399103 -3.798987 -4.940579 2e-06 2e-06 -2e-06 -5.787754 9.840196 -49.328178 -0.178239 -0.305864 61.564957 -5.352788 -9.2858 -4.919281 1.647695 -1.881281 -0.977073 -0.0 0.0 2e-06 -5.799473 -4.282912 -54.679287 0.249208 -0.046368 79.446426 -4.485735 -8.051371 -2.654577 -1.341911 0.667273 -7.533786 0.0 0.0 -2e-06 
